<svg xmlns="http://www.w3.org/2000/svg" width="49.671" height="38.12" viewBox="0 0 49.671 38.12">
    <path id="Path_6" data-name="Path 6" d="M78.169,198.12a19.06,19.06,0,1,1,19.079-19.06A19.07,19.07,0,0,1,78.169,198.12Zm0-3.465A15.594,15.594,0,1,0,62.558,179.06,15.6,15.6,0,0,0,78.169,194.654ZM70.41,188.39a1.734,1.734,0,1,1,2.218-2.664,8.68,8.68,0,0,0,11.079,0,1.734,1.734,0,1,1,2.218,2.665,12.152,12.152,0,0,1-15.515,0ZM54.532,172.128a1.735,1.735,0,0,1,3.269,1.157,17.134,17.134,0,0,0,.006,11.547,1.735,1.735,0,0,1-3.269,1.161,20.6,20.6,0,0,1-.006-13.866Zm47.273,0a20.591,20.591,0,0,1-.006,13.866,1.735,1.735,0,0,1-3.269-1.161,17.134,17.134,0,0,0,.006-11.547,1.735,1.735,0,0,1,3.27-1.158Zm-17.279-1.154h0a1.733,1.733,0,0,1,1.733,1.733v2.31a1.733,1.733,0,0,1-1.733,1.733h0a1.733,1.733,0,0,1-1.733-1.733v-2.31A1.733,1.733,0,0,1,84.527,170.974Zm-12.72,0h0a1.733,1.733,0,0,1,1.733,1.733v2.31a1.733,1.733,0,0,1-1.733,1.733h0a1.733,1.733,0,0,1-1.733-1.733v-2.31A1.733,1.733,0,0,1,71.807,170.974Z" transform="translate(-53.333 -160)" fill="#bfbfbf"/>
</svg>