<svg xmlns="http://www.w3.org/2000/svg" width="40" height="38.666" viewBox="0 0 40 38.666">
    <path id="Path_1" data-name="Path 1" d="M105.659,153.1a16.648,16.648,0,0,1-11.936-2.27q-.358-.221-.717-.44l-4.076,1.162a1.535,1.535,0,0,1-1.842-1.925l1.11-4.254c-.413-.735-.687-1.232-.827-1.5a18.6,18.6,0,0,1-2.039-8.509c0-9.956,7.723-18.027,17.25-18.027,8.7,0,15.889,6.724,17.077,15.469a12.67,12.67,0,0,1,5.673,10.657,12.944,12.944,0,0,1-1.419,5.92c-.084.164-.234.437-.454.831l.685,2.624a1.535,1.535,0,0,1-1.842,1.925l-2.515-.717-.292.18a11.59,11.59,0,0,1-13.837-1.12Zm3.743-1.178a8.677,8.677,0,0,0,8.551-.391c.1-.065.389-.239.868-.531a1.444,1.444,0,0,1,1.149-.157l.589.168-.16-.616a1.629,1.629,0,0,1,.157-1.211q.367-.638.715-1.288a9.748,9.748,0,0,0-1.5-11.011A18,18,0,0,1,109.4,151.924ZM91.26,145.559l-.586,2.247,2.15-.613a1.444,1.444,0,0,1,1.15.158c.715.435,1.142.7,1.293.791a13.717,13.717,0,0,0,7.317,2.11c7.87,0,14.25-6.667,14.25-14.892s-6.38-14.892-14.25-14.892-14.25,6.667-14.25,14.892a15.353,15.353,0,0,0,1.683,7.027c.145.284.512.946,1.087,1.96a1.629,1.629,0,0,1,.156,1.211Zm17.573-15.685a1.569,1.569,0,0,1,0,3.135h-12.5a1.569,1.569,0,0,1,0-3.135Zm-6,7.838a1.569,1.569,0,0,1,0,3.135h-6.5a1.569,1.569,0,0,1,0-3.135Z" transform="translate(-85.333 -117.333)" fill="#fff"/>
</svg>