<svg xmlns="http://www.w3.org/2000/svg" width="26.526" height="29.474" viewBox="0 0 26.526 29.474">
    <path id="Path_4" data-name="Path 4" d="M130.217,106.194V96.365a11.052,11.052,0,0,1,22.1,0v7.829l2.093,4.18a1.1,1.1,0,0,1-.988,1.6H129.113a1.1,1.1,0,0,1-.988-1.6l2.093-2.18Zm21.42,1.57-1.411-2.816a1.1,1.1,0,0,1-.117-.493v-8.09a8.841,8.841,0,0,0-17.682,0v8.089a1.106,1.106,0,0,1-.117.494l-1.411,2.816h20.737Zm-15.312,5.261a1.1,1.1,0,1,1,1.413-1.7,5.536,5.536,0,0,0,7.06,0,1.1,1.1,0,1,1,1.413,1.7,7.746,7.746,0,0,1-9.885,0Z" transform="translate(-128.006 -85.333)" fill="#8a8a8a"/>
</svg>
