<svg xmlns="http://www.w3.org/2000/svg" width="32.334" height="32.334" viewBox="0 0 32.334 32.334">
    <path id="Path_8" data-name="Path 8" d="M88.07,110.568c-.417-.708-.69-1.183-.826-1.436a16.164,16.164,0,1,1,5.953,6.244q-.379-.224-.76-.446l-3.956,1.079a1.213,1.213,0,0,1-1.489-1.489l1.078-3.952Zm2.474.143-.654,2.4,2.4-.654a1.213,1.213,0,0,1,.929.122q.614.356,1.226.718a13.73,13.73,0,1,0-5.064-5.311c.141.262.49.865,1.037,1.79a1.213,1.213,0,0,1,.127.936Zm5.532-2.682a1.212,1.212,0,1,1,1.55-1.865,6.063,6.063,0,0,0,7.745,0,1.213,1.213,0,0,1,1.55,1.865,8.488,8.488,0,0,1-10.846,0Z" transform="translate(-85.333 -85.333)" fill="#fff"/>
</svg>