<svg xmlns="http://www.w3.org/2000/svg" width="40" height="35" viewBox="0 0 40 35">
    <path id="Path_3" data-name="Path 3" d="M107.834,163.167c0,.828-1.672,1.5-2.5,1.5a1.5,1.5,0,0,1-1.5-1.5v-14a1.5,1.5,0,0,1,3,0l1,14Zm6.5,0a1.5,1.5,0,0,1-3,0v-8a1.5,1.5,0,1,1,3,0v8Zm-15,0a1.5,1.5,0,0,1-3,0v-10a1.5,1.5,0,1,1,3,0Zm-8.5-24.5h29a5.5,5.5,0,0,1,5.5,5.5v24a5.5,5.5,0,0,1-5.5,5.5h-29a5.5,5.5,0,0,1-5.5-5.5v-24A5.5,5.5,0,0,1,90.834,138.667Zm0,3a2.5,2.5,0,0,0-2.5,2.5v24a2.5,2.5,0,0,0,2.5,2.5h29a2.5,2.5,0,0,0,2.5-2.5v-24a2.5,2.5,0,0,0-2.5-2.5h-29Z" transform="translate(-85.334 -138.667)" fill="#ffffff"/>
</svg>
